<svg width="226" height="204" viewBox="0 0 226 204" fill="none" xmlns="http://www.w3.org/2000/svg">
<path d="M28.7783 203.606C25.1517 203.606 21.6243 202.924 18.1857 201.561C14.7471 200.198 11.6535 198.184 8.90472 195.52C6.15596 192.855 3.98204 189.54 2.38818 185.569C0.794318 181.602 0 177.011 0 171.8C0 166.588 0.809995 162.381 2.43521 158.441C4.06043 154.505 6.22912 151.169 8.95175 148.443C11.6744 145.717 14.7471 143.627 18.1857 142.171C21.619 140.716 25.1517 139.988 28.7783 139.988C32.405 139.988 35.9168 140.67 39.324 142.033C42.7312 143.396 45.7935 145.425 48.5109 148.121C51.2283 150.816 53.397 154.131 55.0274 158.072C56.6526 162.012 57.4626 166.583 57.4626 171.795C57.4626 177.006 56.6683 181.213 55.0744 185.153C53.4806 189.094 51.3276 192.44 48.6049 195.197C45.8875 197.954 42.8096 200.044 39.371 201.469C35.9324 202.894 32.405 203.606 28.7783 203.606ZM28.7783 199.061C32.0288 199.061 34.8246 198.287 37.1657 196.744C39.5069 195.202 41.4143 193.142 42.8827 190.565C44.3512 187.992 45.4277 185.082 46.1175 181.843C46.802 178.605 47.1469 175.253 47.1469 171.8C47.1469 168.346 46.802 165.092 46.1175 161.848C45.4277 158.61 44.3512 155.684 42.8827 153.081C41.4143 150.478 39.5069 148.402 37.1657 146.855C34.8246 145.312 32.0236 144.539 28.7783 144.539C25.5331 144.539 22.7321 145.312 20.391 146.855C18.0498 148.397 16.1267 150.478 14.6269 153.081C13.1271 155.684 12.0193 158.61 11.2981 161.848C10.577 165.092 10.2216 168.407 10.2216 171.8C10.2216 175.192 10.5822 178.6 11.2981 181.843C12.0141 185.087 13.1271 187.992 14.6269 190.565C16.1267 193.142 18.0498 195.197 20.391 196.744C22.7321 198.287 25.5279 199.061 28.7783 199.061Z" fill="#C9CCD4"/>
<path d="M63.9269 145.081V141.356H77.1429V146.444H76.2075L63.9269 145.081ZM63.9269 202.242V198.517L76.2075 197.154H78.2716L90.5522 198.517V202.242H63.9321H63.9269ZM72.4606 202.242C72.586 199.152 72.6644 196.062 72.6957 192.973C72.7271 189.883 72.7428 186.747 72.7428 183.57V160.172C72.7428 157.021 72.7271 153.875 72.6957 150.723C72.6644 147.572 72.586 144.451 72.4606 141.361H81.9297C81.867 144.39 81.8043 147.48 81.7416 150.631C81.6788 153.782 81.6475 156.934 81.6475 160.08V184.205C81.6475 187.146 81.6788 190.098 81.7416 193.065C81.8043 196.032 81.867 199.096 81.9297 202.242H72.4606ZM77.1429 178.251V173.982H87.8296C91.6392 173.982 94.7015 173.377 97.0165 172.163C99.3263 170.954 101.014 169.258 102.08 167.075C103.141 164.892 103.674 162.381 103.674 159.532C103.674 155.11 102.378 151.671 99.7862 149.217C97.1942 146.762 93.0867 145.537 87.4585 145.537H77.1481V141.356H89.1465C94.4559 141.356 98.8612 142.13 102.362 143.672C105.864 145.215 108.503 147.351 110.285 150.078C112.067 152.804 112.955 155.955 112.955 159.527C112.955 163.098 112.077 166.04 110.332 168.889C108.581 171.738 105.785 174.008 101.944 175.704C98.1035 177.4 92.9613 178.251 86.5231 178.251H77.1481H77.1429Z" fill="#C9CCD4"/>
<path d="M118.207 145.081V141.356H144.733V145.081L132.452 146.444H130.482L118.202 145.081H118.207ZM148.95 203.605C144.451 203.605 140.484 202.755 137.046 201.059C133.607 199.362 130.937 196.729 129.03 193.152C127.122 189.58 126.171 184.974 126.171 179.337V160.116C126.171 156.995 126.155 153.859 126.124 150.713C126.093 147.562 126.014 144.441 125.889 141.351H135.264C135.201 144.379 135.139 147.454 135.076 150.575C135.013 153.695 134.982 156.831 134.982 159.978V176.698C134.982 181.848 135.625 185.922 136.905 188.919C138.185 191.917 139.983 194.038 142.293 195.278C144.602 196.518 147.356 197.144 150.539 197.144C154.103 197.144 157.066 196.431 159.444 195.007C161.816 193.582 163.598 191.251 164.784 188.007C165.971 184.769 166.566 180.48 166.566 175.15V141.346H171.348V177.328C171.348 183.687 170.376 188.796 168.442 192.639C166.504 196.488 163.849 199.275 160.473 201.002C157.097 202.729 153.256 203.59 148.945 203.59L148.95 203.605ZM157.014 145.081V141.356H179.511V145.081L169.2 146.352H167.324L157.014 145.081Z" fill="#C9CCD4"/>
<path d="M203.032 203.605C199.531 203.605 196.155 203.134 192.909 202.196C189.659 201.258 186.942 200.121 184.757 198.789L185.322 186.065H191.133L193.568 200.059L187.381 197.513V193.152C189.319 194.484 191.049 195.591 192.58 196.467C194.111 197.343 195.658 197.999 197.221 198.42C198.783 198.845 200.628 199.055 202.75 199.055C205.686 199.055 208.247 198.63 210.437 197.784C212.621 196.939 214.309 195.678 215.5 194.013C216.687 192.347 217.282 190.364 217.282 188.058C217.282 186.121 216.875 184.487 216.065 183.149C215.25 181.817 214.001 180.638 212.318 179.603C210.63 178.573 208.44 177.574 205.754 176.606L202.096 175.15C198.909 173.941 196.097 172.501 193.662 170.836C191.227 169.17 189.335 167.187 187.992 164.881C186.649 162.581 185.975 159.885 185.975 156.795C185.975 153.28 186.895 150.282 188.739 147.797C190.584 145.312 193.098 143.39 196.285 142.027C199.473 140.664 203.063 139.983 207.066 139.983C210.191 139.983 213.034 140.408 215.595 141.254C218.155 142.104 220.439 143.252 222.435 144.707L221.871 156.611H216.154L213.53 142.888L219.624 145.886V150.431C217.309 148.248 215.171 146.721 213.201 145.84C211.231 144.964 209 144.523 206.502 144.523C204.004 144.523 201.987 144.917 200.079 145.701C198.172 146.491 196.656 147.644 195.533 149.155C194.409 150.672 193.845 152.547 193.845 154.792C193.845 156.672 194.268 158.322 195.11 159.742C195.951 161.166 197.158 162.422 198.721 163.513C200.283 164.605 202.19 165.573 204.438 166.419L208.184 167.782C212.308 169.299 215.621 170.949 218.119 172.737C220.617 174.525 222.43 176.508 223.553 178.691C224.677 180.874 225.241 183.416 225.241 186.326C225.241 189.903 224.29 192.978 222.383 195.55C220.475 198.128 217.868 200.111 214.555 201.504C211.241 202.898 207.401 203.595 203.027 203.595L203.032 203.605Z" fill="#C9CCD4"/>
<path d="M67.252 1.01953C72.7443 1.18343 90.1225 1.95908 105.815 15.0068C121.177 27.779 125.12 44.1623 126.148 49.5801C121.464 54.851 116.78 60.121 112.096 65.3906C108.503 69.4323 104.91 73.4742 101.317 77.5166C105.865 63.1667 103.399 47.9657 94.2715 37.3193L93.7783 36.7559L93.2637 36.1924C82.3938 24.525 67.4759 23.7826 66.0879 23.7354C49.4655 23.1636 38.6587 33.595 35.8613 36.5752L35.4092 37.0664C27.1153 46.2655 25.0188 57.4242 25.2217 64.8291V64.833C25.2454 65.6114 25.2818 66.2453 25.3115 66.6943V66.6963C25.5561 70.282 26.7894 81.4042 35.7686 91.2168V91.2178C37.0113 92.579 47.094 103.263 63.5547 104.531C73.1441 105.269 80.4626 102.45 84.1289 101.018C93.0989 97.519 98.9883 92.3215 102.053 89.1943L102.069 89.1777L102.086 89.1592C115.188 74.4335 128.291 59.708 141.394 44.9766L142.061 44.2256L141.308 43.5615L133.209 36.416L169.587 28.6494L167.029 64.0049L158.298 56.7832L157.541 56.1572L156.901 56.9023L116.364 104.112C112.4 108.358 104.654 115.549 92.6475 120.475C80.2103 125.577 69.1644 125.807 63.249 125.521L63.2266 125.52H63.2041C59.1596 125.508 35.6118 125.061 17.6953 106.297C2.93548 90.8346 1.29724 72.6837 1.05762 67.0146L1.03906 66.415C0.851978 60.3667 0.784696 41.47 14.5195 24.4609L15.1836 23.6523C34.5153 0.552404 63.4303 0.906657 67.252 1.01953Z" stroke="white" stroke-width="2" stroke-miterlimit="10"/>
<path d="M179.285 1.02628C182.07 0.992658 200.311 1.07751 213.361 15.5575C223.322 26.6174 224.161 39.8897 224.292 43.4413C224.886 59.9035 216.375 77.6186 202.148 84.8935C195.724 88.1782 189.114 88.6911 175.362 89.7235C165.943 90.4323 158.048 90.1375 152.502 89.7235L151.438 89.6444L151.428 90.7118L151.116 125.314H126.582V104.256C136.624 92.6664 146.665 81.077 156.701 69.4931C159.738 69.5933 162.775 69.6929 165.812 69.7919C169.007 69.8961 172.203 69.9998 175.399 70.1054H175.406C176.829 70.1404 186.529 70.2276 193.725 62.623L194.066 62.2548C200.127 55.5681 200.123 47.7478 200.075 45.9159C200.144 44.239 200.319 34.4936 192.41 27.0155C183.409 18.4991 171.703 20.2816 170.469 20.4892L170.457 20.4911C155.836 23.1363 141.215 25.7758 126.588 28.4208V1.46768C144.145 1.32191 161.732 1.17183 179.281 1.02628H179.285Z" stroke="white" stroke-width="2" stroke-miterlimit="10"/>
</svg>
