<svg width="226" height="127" viewBox="0 0 226 127" fill="none" xmlns="http://www.w3.org/2000/svg">
<path d="M67.252 1.01953C72.7443 1.18343 90.1225 1.95908 105.815 15.0068C121.177 27.779 125.12 44.1623 126.148 49.5801C121.464 54.851 116.78 60.121 112.096 65.3906C108.503 69.4323 104.91 73.4742 101.317 77.5166C105.865 63.1667 103.399 47.9657 94.2715 37.3193L93.7783 36.7559L93.2637 36.1924C82.3938 24.525 67.4759 23.7826 66.0879 23.7354C49.4655 23.1636 38.6587 33.595 35.8613 36.5752L35.4092 37.0664C27.1153 46.2655 25.0188 57.4242 25.2217 64.8291V64.833C25.2454 65.6114 25.2818 66.2453 25.3115 66.6943V66.6963C25.5561 70.282 26.7894 81.4042 35.7686 91.2168V91.2178C37.0113 92.579 47.094 103.263 63.5547 104.531C73.1441 105.269 80.4626 102.45 84.1289 101.018C93.0989 97.519 98.9883 92.3215 102.053 89.1943L102.069 89.1777L102.086 89.1592C115.188 74.4335 128.291 59.708 141.394 44.9766L142.061 44.2256L141.308 43.5615L133.209 36.416L169.587 28.6494L167.029 64.0049L158.298 56.7832L157.541 56.1572L156.901 56.9023L116.364 104.112C112.4 108.358 104.654 115.549 92.6475 120.475C80.2103 125.577 69.1644 125.807 63.249 125.521L63.2266 125.52H63.2041C59.1596 125.508 35.6118 125.061 17.6953 106.297C2.93548 90.8346 1.29724 72.6837 1.05762 67.0146L1.03906 66.415C0.851978 60.3667 0.784698 41.47 14.5195 24.4609L15.1836 23.6523C34.5153 0.552403 63.4303 0.906657 67.252 1.01953Z" fill="white" stroke="white" stroke-width="2" stroke-miterlimit="10"/>
<path d="M179.285 1.02637C182.07 0.99275 200.311 1.07761 213.361 15.5576C223.322 26.6175 224.16 39.8898 224.292 43.4414C224.886 59.9036 216.375 77.6186 202.148 84.8936C195.724 88.1783 189.114 88.6912 175.362 89.7236C165.942 90.4324 158.048 90.1376 152.502 89.7236L151.438 89.6445L151.428 90.7119L151.116 125.314H126.582V104.256C136.624 92.6665 146.665 81.0771 156.701 69.4932C159.738 69.5934 162.775 69.693 165.812 69.792C169.007 69.8962 172.203 69.9999 175.399 70.1055H175.406C176.829 70.1405 186.528 70.2277 193.725 62.623L194.066 62.2549C200.127 55.5682 200.123 47.7479 200.075 45.916C200.144 44.2391 200.319 34.4937 192.41 27.0156C183.409 18.4992 171.703 20.2817 170.469 20.4893L170.457 20.4912C155.836 23.1364 141.215 25.7759 126.588 28.4209V1.46777C144.145 1.322 161.732 1.17192 179.281 1.02637H179.285Z" fill="white" stroke="white" stroke-width="2" stroke-miterlimit="10"/>
</svg>
